<svg width="96" height="96" viewBox="0 0 96 96" fill="none" xmlns="http://www.w3.org/2000/svg">
<g clip-path="url(#clip0_424_9)">
<path d="M13.3615 21.4048L12.3296 20.3729C11.2977 19.341 9.63085 19.3675 8.62541 20.3729L8.59898 20.3994C7.5671 21.4312 7.5671 23.0981 8.59898 24.1035L9.63085 25.1354C10.6627 26.1673 12.3031 26.1673 13.335 25.1354L13.3615 25.109C14.3934 24.1035 14.3934 22.4102 13.3615 21.4048Z" fill="#FFDE33"/>
<path d="M5.31813 38.2323H2.61938C1.16417 38.2323 0 39.3965 0 40.8516V40.8781C0 42.3335 1.16417 43.4975 2.61938 43.4975H5.29165C6.77335 43.5241 7.9375 42.3597 7.9375 40.9047V40.8781C7.9375 39.3965 6.77335 38.2323 5.31813 38.2323Z" fill="#FFDE33"/>
<path d="M29.1306 11.9062H29.1042C27.6225 11.9062 26.4583 13.0704 26.4583 14.5256V17.0656C26.4583 18.5208 27.6225 19.685 29.0777 19.685H29.1042C30.5858 19.7115 31.75 18.5473 31.75 17.0921V14.5256C31.75 13.0704 30.5858 11.9062 29.1306 11.9062Z" fill="#FFDE33"/>
<path d="M49.6094 20.3994C48.5775 19.3675 46.9106 19.3675 45.8787 20.3729L44.8469 21.4048C43.815 22.4367 43.815 24.1035 44.8469 25.109L44.8735 25.1354C45.9053 26.1673 47.5722 26.1673 48.5775 25.1354L49.6094 24.1035C50.6412 23.0717 50.6412 21.4313 49.6094 20.3994Z" fill="#FFDE33"/>
<path d="M29.1042 25.0031C20.3465 25.0031 13.2292 32.1204 13.2292 40.8781C13.2292 46.555 16.2196 51.5425 20.7089 54.3488C22.8569 48.1262 28.7659 43.6562 35.7188 43.6562C35.9924 43.6562 36.2644 43.663 36.5346 43.6769C37.6807 39.6092 39.976 36.0233 43.0482 33.2917C40.3539 28.3564 35.1155 25.0031 29.1042 25.0031Z" fill="#FFDE33"/>
<path d="M8.59898 61.3569C9.63085 62.3888 11.2977 62.3888 12.3296 61.3569L13.3615 60.325C14.3934 59.2931 14.3669 57.6263 13.3615 56.621L13.335 56.5944C12.3031 55.5625 10.6363 55.5625 9.60438 56.5944L8.57251 57.6263C7.5671 58.6847 7.5671 60.325 8.59898 61.3569Z" fill="#FFDE33"/>
<path d="M27.7812 87.3125H79.375C88.1424 87.3125 95.25 80.2049 95.25 71.4375C95.25 63.9913 90.1236 57.7429 83.2076 56.0284C83.2977 55.224 83.3438 54.4064 83.3438 53.5781C83.3438 41.5226 73.5711 31.75 61.5156 31.75C51.5168 31.75 43.0879 38.4732 40.5035 47.6456C40.2332 47.6317 39.9609 47.625 39.6875 47.625C30.92 47.625 23.8125 54.7326 23.8125 63.5C23.8125 63.7254 23.8172 63.9497 23.8265 64.1727C19.1948 65.8031 15.875 70.2171 15.875 75.4062C15.875 81.9821 21.2056 87.3125 27.7812 87.3125Z" fill="white"/>
</g>
<defs>
<clipPath id="clip0_424_9">
<rect width="95.25" height="95.25" fill="white"/>
</clipPath>
</defs>
</svg>
