<svg width="96" height="96" viewBox="0 0 96 96" fill="none" xmlns="http://www.w3.org/2000/svg">
<path d="M19.8438 67.4687H71.4375C80.2049 67.4687 87.3125 60.3611 87.3125 51.5937C87.3125 44.1476 82.1861 37.8991 75.2701 36.1845C75.3602 35.3802 75.4062 34.5627 75.4062 33.7344C75.4062 21.679 65.6336 11.9062 53.5781 11.9062C43.5793 11.9062 35.1503 18.6294 32.5659 27.8018C32.2956 27.7882 32.0236 27.7812 31.75 27.7812C22.9825 27.7812 15.875 34.8887 15.875 43.6562C15.875 43.8817 15.8797 44.1059 15.889 44.329C11.2573 45.9593 7.9375 50.3734 7.9375 55.5625C7.9375 62.1383 13.2681 67.4687 19.8438 67.4687Z" fill="white"/>
<path d="M41.3329 71.4375C43.3122 71.4375 44.5992 73.5203 43.7142 75.2904L38.439 85.8409C37.988 86.7426 37.0661 87.3125 36.0577 87.3125C34.0786 87.3125 32.7914 85.2297 33.6765 83.4596L38.9517 72.9091C39.4026 72.0074 40.3245 71.4375 41.3329 71.4375Z" fill="#3378FF"/>
<path d="M53.2392 71.4375C55.2184 71.4375 56.5055 73.5203 55.6205 75.2904L50.3452 85.8409C49.8944 86.7426 48.9724 87.3125 47.964 87.3125C45.9847 87.3125 44.6977 85.2297 45.5827 83.4596L50.858 72.9091C51.3088 72.0074 52.2308 71.4375 53.2392 71.4375Z" fill="#3378FF"/>
</svg>
