<svg width="96" height="96" viewBox="0 0 96 96" fill="none" xmlns="http://www.w3.org/2000/svg">
<path d="M20.0938 68.2187H71.6875C80.4549 68.2187 87.5625 61.1111 87.5625 52.3437C87.5625 44.8976 82.4361 38.6491 75.5201 36.9345C75.6102 36.1302 75.6562 35.3127 75.6562 34.4844C75.6562 22.429 65.8836 12.6562 53.8281 12.6562C43.8293 12.6562 35.4003 19.3794 32.8159 28.5518C32.5456 28.5382 32.2736 28.5312 32 28.5312C23.2325 28.5312 16.125 35.6387 16.125 44.4062C16.125 44.6317 16.1297 44.8559 16.139 45.079C11.5073 46.7093 8.1875 51.1234 8.1875 56.3125C8.1875 62.8883 13.5181 68.2187 20.0938 68.2187Z" fill="white"/>
<path d="M20.0938 72.1875C18.9978 72.1875 18.1094 73.0761 18.1094 74.1719C18.1094 75.2676 18.9978 76.1563 20.0938 76.1563H75.6562C76.752 76.1563 77.6406 75.2676 77.6406 74.1719C77.6406 73.0761 76.752 72.1875 75.6562 72.1875H20.0938Z" fill="white"/>
<path d="M20.0938 80.125C18.9978 80.125 18.1094 81.0136 18.1094 82.1094C18.1094 83.2051 18.9978 84.0938 20.0938 84.0938H75.6562C76.752 84.0938 77.6406 83.2051 77.6406 82.1094C77.6406 81.0136 76.752 80.125 75.6562 80.125H20.0938Z" fill="white"/>
</svg>
