<svg width="96" height="96" viewBox="0 0 96 96" fill="none" xmlns="http://www.w3.org/2000/svg">
<path d="M19.9062 75.5625H71.5C80.2674 75.5625 87.375 68.4549 87.375 59.6875C87.375 52.2413 82.2486 45.9929 75.3326 44.2783C75.4227 43.474 75.4688 42.6564 75.4688 41.8281C75.4688 29.7728 65.6961 20 53.6406 20C43.6418 20 35.2128 26.7232 32.6284 35.8956C32.3581 35.8819 32.0861 35.875 31.8125 35.875C23.045 35.875 15.9375 42.9825 15.9375 51.75C15.9375 51.9754 15.9422 52.1997 15.9515 52.4227C11.3198 54.0531 8 58.4671 8 63.6562C8 70.2321 13.3306 75.5625 19.9062 75.5625Z" fill="white"/>
</svg>
