<svg width="96" height="96" viewBox="0 0 96 96" fill="none" xmlns="http://www.w3.org/2000/svg">
<path d="M12.3296 8.46665L13.3615 9.49852C14.3934 10.504 14.3934 12.1973 13.3615 13.2027L13.335 13.2291C12.3031 14.261 10.6627 14.261 9.63085 13.2291L8.59898 12.1973C7.5671 11.1919 7.5671 9.52499 8.59898 8.49312L8.62541 8.46665C9.63085 7.46124 11.2977 7.43477 12.3296 8.46665Z" fill="#FFDE33"/>
<path d="M2.61938 26.326H5.31813C6.77335 26.326 7.9375 27.4902 7.9375 28.9719V28.9984C7.9375 30.4536 6.77335 31.6177 5.29165 31.5913H2.61938C1.16417 31.5913 0 30.4271 0 28.9719V28.9454C0 27.4902 1.16417 26.326 2.61938 26.326Z" fill="#FFDE33"/>
<path d="M29.1042 0H29.1306C30.5858 0 31.75 1.16417 31.75 2.61937V5.18585C31.75 6.64103 30.5858 7.80522 29.1042 7.77875H29.0777C27.6225 7.77875 26.4583 6.6146 26.4583 5.15937V2.61937C26.4583 1.16417 27.6225 0 29.1042 0Z" fill="#FFDE33"/>
<path d="M45.8787 8.46666C46.9106 7.46125 48.5775 7.46125 49.6094 8.49313C50.6412 9.525 50.6412 11.1654 49.6094 12.1973L48.5775 13.2292C47.5722 14.261 45.9053 14.261 44.8735 13.2292L44.8469 13.2027C43.815 12.1973 43.815 10.5304 44.8469 9.49853L45.8787 8.46666Z" fill="#FFDE33"/>
<path d="M13.2292 28.9719C13.2292 20.2141 20.3465 13.0969 29.1042 13.0969C35.1155 13.0969 40.3539 16.4501 43.0482 21.3855C39.976 24.117 37.6807 27.703 36.5346 31.7706C36.2644 31.7569 35.9924 31.75 35.7188 31.75C28.7659 31.75 22.8569 36.2199 20.7089 42.4426C16.2196 39.6361 13.2292 34.6486 13.2292 28.9719Z" fill="#FFDE33"/>
<path d="M12.3296 49.4507C11.2977 50.4825 9.63085 50.4825 8.59898 49.4507C7.5671 48.4188 7.5671 46.7785 8.57251 45.72L9.60438 44.6882C10.6363 43.6563 12.3031 43.6563 13.335 44.6882L13.3615 44.7147C14.3669 45.72 14.3934 47.3869 13.3615 48.4188L12.3296 49.4507Z" fill="#FFDE33"/>
<path d="M79.375 75.4062H27.7812C21.2056 75.4062 15.875 70.0758 15.875 63.5C15.875 58.3109 19.1948 53.8968 23.8265 52.2665C23.8172 52.0434 23.8125 51.8192 23.8125 51.5937C23.8125 42.8264 30.92 35.7187 39.6875 35.7187C39.9609 35.7187 40.2332 35.7257 40.5035 35.7393C43.0879 26.5669 51.5168 19.8438 61.5156 19.8438C73.5711 19.8438 83.3438 29.6165 83.3438 41.6719C83.3438 42.5002 83.2977 43.3177 83.2076 44.1222C90.1236 45.8367 95.25 52.0851 95.25 59.5312C95.25 68.2986 88.1424 75.4062 79.375 75.4062Z" fill="white"/>
<path d="M37.3641 79.375C39.3433 79.375 40.6305 81.4578 39.7454 83.2279L34.4702 93.7784C34.0192 94.6801 33.0974 95.25 32.089 95.25C30.1098 95.25 28.8226 93.1672 29.7077 91.3971L34.9829 80.8466C35.4339 79.9449 36.3557 79.375 37.3641 79.375Z" fill="#3378FF"/>
<path d="M49.2704 79.375C51.2497 79.375 52.5367 81.4578 51.6517 83.2279L46.3764 93.7784C45.9256 94.6801 45.0036 95.25 43.9952 95.25C42.016 95.25 40.7289 93.1672 41.6139 91.3971L46.8892 80.8466C47.34 79.9449 48.262 79.375 49.2704 79.375Z" fill="#3378FF"/>
<path d="M73.0829 79.375C72.0745 79.375 71.1525 79.9449 70.7017 80.8466L65.4264 91.3971C64.5414 93.1672 65.8285 95.25 67.8077 95.25C68.8161 95.25 69.7381 94.6801 70.1889 93.7784L75.4642 83.2279C76.3492 81.4578 75.0622 79.375 73.0829 79.375Z" fill="#3378FF"/>
<path d="M61.1767 79.375C63.1559 79.375 64.443 81.4578 63.5579 83.2279L58.2827 93.7784C57.8318 94.6801 56.9099 95.25 55.9014 95.25C53.9222 95.25 52.6351 93.1672 53.5202 91.3971L58.7954 80.8466C59.2463 79.9449 60.1682 79.375 61.1767 79.375Z" fill="#3378FF"/>
</svg>
