<svg width="96" height="96" viewBox="0 0 96 96" fill="none" xmlns="http://www.w3.org/2000/svg">
<g clip-path="url(#clip0_403_212)">
<path d="M75.4062 79.375H11.9062C5.33063 79.375 0 74.0442 0 67.4687C0 62.2149 3.40296 57.7556 8.12502 56.1753C8.00148 55.3275 7.9375 54.4604 7.9375 53.5781C7.9375 43.7146 15.9334 35.7187 25.7969 35.7187C26.6904 35.7187 27.5686 35.7843 28.4269 35.911C31.0441 24.437 41.3111 15.8749 53.5781 15.8749C67.289 15.8749 78.5015 26.5713 79.3262 40.0744C88.4083 41.8945 95.25 49.9138 95.25 59.5312C95.25 70.4905 86.3656 79.375 75.4062 79.375Z" fill="white"/>
</g>
<defs>
<clipPath id="clip0_403_212">
<rect width="95.25" height="95.25" fill="white"/>
</clipPath>
</defs>
</svg>
