<svg width="96" height="96" viewBox="0 0 96 96" fill="none" xmlns="http://www.w3.org/2000/svg">
<path d="M71.4375 67.7187H19.8438C13.2681 67.7187 7.9375 62.3883 7.9375 55.8125C7.9375 50.6234 11.2573 46.2093 15.889 44.579C15.8797 44.3559 15.875 44.1317 15.875 43.9062C15.875 35.1387 22.9825 28.0312 31.75 28.0312C32.0236 28.0312 32.2956 28.0382 32.5659 28.0518C35.1503 18.8794 43.5793 12.1562 53.5781 12.1562C65.6336 12.1562 75.4062 21.929 75.4062 33.9844C75.4062 34.8127 75.3602 35.6302 75.2701 36.4345C82.1861 38.1491 87.3125 44.3976 87.3125 51.8437C87.3125 60.6111 80.2049 67.7187 71.4375 67.7187Z" fill="white"/>
<path d="M33.5291 87.5625H37.9084L37.4705 82.7119L41.4667 85.523L43.6563 81.6645L39.2769 79.625L43.6563 77.5855L41.4667 73.727L37.4705 76.5381L37.9084 71.6875H33.5291L33.967 76.5381L29.9709 73.727L27.7812 77.5855L32.1606 79.625L27.7812 81.6645L29.9709 85.523L33.967 82.7119L33.5291 87.5625Z" fill="white"/>
<path d="M61.7208 87.5625H57.3417L57.7794 82.7119L53.7833 85.523L51.5938 81.6645L55.9729 79.625L51.5938 77.5855L53.7833 73.727L57.7794 76.5381L57.3417 71.6875H61.7208L61.2831 76.5381L65.2792 73.727L67.4688 77.5855L63.0896 79.625L67.4688 81.6645L65.2792 85.523L61.2831 82.7119L61.7208 87.5625Z" fill="white"/>
</svg>
