<svg width="88" height="88" viewBox="0 0 88 88" fill="none" xmlns="http://www.w3.org/2000/svg">
<path d="M20.5513 14.3129L19.0028 12.758C17.4543 11.2031 14.9528 11.243 13.444 12.758L13.4043 12.7979C11.8558 14.3527 11.8558 16.8644 13.4043 18.3795L14.9528 19.9344C16.5013 21.4892 18.9631 21.4892 20.5116 19.9344L20.5513 19.8945C22.0998 18.3795 22.0998 15.8279 20.5513 14.3129ZM8.4808 39.6692H4.43085C2.24704 39.6692 0.5 41.4234 0.5 43.6166V43.6562C0.5 45.849 2.24704 47.6032 4.43085 47.6032H8.44111C10.6646 47.6433 12.4116 45.8891 12.4116 43.6959V43.6562C12.4116 41.4234 10.6646 39.6692 8.4808 39.6692ZM44.2158 0H44.1761C41.9524 0 40.2054 1.75423 40.2054 3.947V7.77438C40.2054 9.9672 41.9524 11.7214 44.1364 11.7214H44.1761C46.3998 11.7613 48.1468 10.007 48.1468 7.81427V3.947C48.1468 1.75423 46.3998 0 44.2158 0ZM74.9478 12.7979C73.3992 11.243 70.8981 11.243 69.3495 12.758L67.8009 14.3129C66.2523 15.8677 66.2523 18.3795 67.8009 19.8945L67.8406 19.9344C69.3892 21.4892 71.8907 21.4892 73.3996 19.9344L74.9478 18.3795C76.4964 16.8246 76.4964 14.3527 74.9478 12.7979ZM67.7612 72.9996L69.3098 74.5546C70.8584 76.1095 73.3595 76.1095 74.9081 74.5546C76.4567 72.9996 76.4567 70.4878 74.9081 68.9328L73.3595 67.3783C71.8113 65.8233 69.3098 65.863 67.8009 67.3783C66.2126 68.9729 66.2126 71.4446 67.7612 72.9996ZM75.9404 43.6166V43.6562C75.9404 45.849 77.6874 47.6032 79.8714 47.6032H83.8819C86.0655 47.6032 87.8125 45.849 87.8125 43.6562V43.6166C87.8125 41.4234 86.0655 39.6692 83.8819 39.6692H79.8714C77.6874 39.6692 75.9404 41.4234 75.9404 43.6166ZM44.1761 19.735C31.0336 19.735 20.3528 30.4597 20.3528 43.6562C20.3528 56.8527 31.0336 67.5775 44.1761 67.5775C57.3186 67.5775 67.9993 56.8527 67.9993 43.6562C67.9993 30.4597 57.3186 19.735 44.1761 19.735ZM44.1364 87.3125H44.1761C46.3601 87.3125 48.1071 85.5583 48.1071 83.3656V79.5381C48.1071 77.3454 46.3601 75.5912 44.1761 75.5912H44.1364C41.9524 75.5912 40.2054 77.3454 40.2054 79.5381V83.3656C40.2054 85.5583 41.9524 87.3125 44.1364 87.3125ZM13.4043 74.5145C14.9528 76.0694 17.4543 76.0694 19.0028 74.5145L20.5513 72.9599C22.0998 71.405 22.0601 68.8931 20.5513 67.3783L20.5116 67.3382C18.9631 65.7832 16.4616 65.7832 14.9131 67.3382L13.3646 68.8931C11.8558 70.4878 11.8558 72.9599 13.4043 74.5145Z" fill="#FFDE33"/>
</svg>
