<svg width="96" height="96" viewBox="0 0 96 96" fill="none" xmlns="http://www.w3.org/2000/svg">
<path d="M59.5666 67.4687H71.4375C80.2049 67.4687 87.3125 60.3611 87.3125 51.5937C87.3125 44.1476 82.1861 37.8991 75.2701 36.1845C75.3602 35.3802 75.4062 34.5627 75.4062 33.7344C75.4062 21.679 65.6336 11.9062 53.5781 11.9062C43.5793 11.9062 35.1503 18.6294 32.5659 27.8018C32.2956 27.7882 32.0236 27.7812 31.75 27.7812C22.9825 27.7812 15.875 34.8887 15.875 43.6562C15.875 43.8817 15.8797 44.1059 15.889 44.329C11.2573 45.9593 7.9375 50.3734 7.9375 55.5625C7.9375 62.1383 13.2681 67.4687 19.8438 67.4687H31.1477L48.1481 37.7184C50.167 34.1849 55.5625 35.6177 55.5625 39.6875V55.5625H59.5312C62.5785 55.5625 64.489 58.8546 62.9769 61.5001L59.5666 67.4687Z" fill="white"/>
<path d="M35.7188 67.4688L51.5938 39.6875V59.5312H59.5312L43.6562 87.3125V67.4688H35.7188Z" fill="#FFDE33"/>
</svg>
